<mxfile host="app.diagrams.net" modified="2021-03-19T12:39:11.602Z" agent="5.0 (X11)" etag="PZUPpL5zcz23iKz-gw30" version="14.4.8" type="github">
  <diagram id="9IVv41sx6csAKvLHflhw" name="Page-1">
    <mxGraphModel dx="2182" dy="804" grid="1" gridSize="10" guides="1" tooltips="1" connect="1" arrows="1" fold="1" page="1" pageScale="1" pageWidth="827" pageHeight="1169" math="0" shadow="0">
      <root>
        <mxCell id="0" />
        <mxCell id="1" parent="0" />
        <mxCell id="3L2rBDvknza2Va5TI4hM-1" value="" style="shape=hexagon;perimeter=hexagonPerimeter2;whiteSpace=wrap;html=1;fixedSize=1;" vertex="1" parent="1">
          <mxGeometry x="-790" y="80" width="910" height="320" as="geometry" />
        </mxCell>
        <mxCell id="3L2rBDvknza2Va5TI4hM-23" value="" style="shape=image;verticalLabelPosition=bottom;labelBackgroundColor=#ffffff;verticalAlign=top;aspect=fixed;imageAspect=0;image=data:image/png,iVBORw0KGgoAAAANSUhEUgAAA/IAAAEwCAMAAAAjA7qcAAADAFBMVEUAAAAAADMAAGYAAJkAAMwAAP8AMwAAMzMAM2YAM5kAM8wAM/8AZgAAZjMAZmYAZpkAZswAZv8AmQAAmTMAmWYAmZkAmcwAmf8AzAAAzDMAzGYAzJkAzMwAzP8A/wAA/zMA/2YA/5kA/8wA//8zAAAzADMzAGYzAJkzAMwzAP8zMwAzMzMzM2YzM5kzM8wzM/8zZgAzZjMzZmYzZpkzZswzZv8zmQAzmTMzmWYzmZkzmcwzmf8zzAAzzDMzzGYzzJkzzMwzzP8z/wAz/zMz/2Yz/5kz/8wz//9mAABmADNmAGZmAJlmAMxmAP9mMwBmMzNmM2ZmM5lmM8xmM/9mZgBmZjNmZmZmZplmZsxmZv9mmQBmmTNmmWZmmZlmmcxmmf9mzABmzDNmzGZmzJlmzMxmzP9m/wBm/zNm/2Zm/5lm/8xm//+ZAACZADOZAGaZAJmZAMyZAP+ZMwCZMzOZM2aZM5mZM8yZM/+ZZgCZZjOZZmaZZpmZZsyZZv+ZmQCZmTOZmWaZmZmZmcyZmf+ZzACZzDOZzGaZzJmZzMyZzP+Z/wCZ/zOZ/2aZ/5mZ/8yZ///MAADMADPMAGbMAJnMAMzMAP/MMwDMMzPMM2bMM5nMM8zMM//MZgDMZjPMZmbMZpnMZszMZv/MmQDMmTPMmWbMmZnMmczMmf/MzADMzDPMzGbMzJnMzMzMzP/M/wDM/zPM/2bM/5nM/8zM////AAD/ADP/AGb/AJn/AMz/AP//MwD/MzP/M2b/M5n/M8z/M///ZgD/ZjP/Zmb/Zpn/Zsz/Zv//mQD/mTP/mWb/mZn/mcz/mf//zAD/zDP/zGb/zJn/zMz/zP///wD//zP//2b//5n//8z///8AAAA3Nzdzc3OAgIBBQUExMTElJSVERERbW1tDQ0MgICAKCgoAAAAfHx9TU1M5OTknJycPDw8pKSkdHR0yMjIDAwMFBQUcHBwNDQ0rKysLCwsEBAQSEhICAgLl/+XA/8DG/8bi/+L5//n1//UUFBT4//jb/9uy/7LM2G+jAAAA2XRSTlP///////////////////////////////////////////////////////////////////////////////////////////////////////////////////////////////////////////////////////////////////////////////////////////////////////////////////////////////////////////////////////////////////////////////////////////////8A9EGGvAAAAAlwSFlzAAAOxAAADsQBlSsOGwAAIABJREFUeJztXUva3CqMrcndRjbg7+usoEd3D+7OtEfZBp1Bj7ITZZLNeDtdIImHzUNg/Kqfc3P/crkMBpsjhBDitQwMDHwhvK4uwMDAwJkYlB8Y+FK4MeUBri7BwMDn4RLKg4b+y4eL+aq/qPd/ePL9oa4o3PGAIcwGrkOU8kCgI1XZRoH+JJMpzFQpTXClOa7whniGftPX1VanroD9FQkrzPgJQiDM3NnO9x0YkCJOeUX/LZqRhpOyNkpNWukjw9t4OqWY7YbfdEO8GVjSRykfSCMjKmpqGxQQyydNbyWELUDsIn5wVEE6Q4Snmr2FmUB/GUJh4BjEKM8NVrPQHClpfxu0bOzbEleZbIna3AVaSWAopSkfScv8WRSxp04B2Qgz4eCB77ssLJJi94WoMHMVtjVO1cwKs5S0HBjYiRjlDfsW20vpBiqjfCgrNK0yjCr1dNGuFJTPWcBPSdGCAi62gBU1s4IpJ8xQGPD/dlzEKr2yev42LSsDLJaG9j9wCKK9PFDfa8ehwuaHujzLCkPqDOVbWrRVnGEBGnDUUN4NHfTooiI56yR037xtsVSzqIYAfAd9s5kEhaRoAwNVSFnsV62yYijvywoxr0F4D+4qnZFMqpmvC1hlSKN7cge/9J9OgFCoLCk9YmBgJ7pP0oUcKhIKJ+iY8iICru5Q2xVWFtAmIlnBxe0tzFSjNBoYqMOVrjgQJQPETz8NEIoFUa1aNKuBgTpcRfl8e354B5cp/rMrNvAByFI+NwWdRWOyMI9S/vtucJhUKec7aD9wITKUZ1JUk4uuTyaTu78kHF4g+7Mo40ahUUq3W851EGYDAzmkKb8aiMoBkaPoz42Awg0qcqj33csnE2d3mDAbGCggSfmg1dU0QUgcp0+Js9ueaKKGl6iKWwVZs5+mED0cGOiJNOUz33LIppNPidmL16TcOUW3LkSNLCsIs13l2JwYnB84BlJXnMbhdz0ldQrlKL8Z27YJkXSR+ggzaT1XNeuQ48BAHZKUL3xPIZNOH5K/OTmaGV82u6SUF9YswP7s/M3PL9vpN5Swaild+is65eFoH3jJHbseAM9hGN86a6NbcX63MBsYEGAn5akPBruQtZCOVtQqu9LM8Bod8oHFAK9FU47y4G64LkCxim01418gHGdE0+lrbM3onyfMbI0Xlnf8LVeTQfmBQ1BNee6R7dJzt5A1Nr+00lZXy2b5BC+K4yNvjXnJQfYoyjthRitlZTWj6tAJ8saHhVfqwobyEM9vaPYDB6GW8t6KcLeWlP8s20XeEH4CccgZ54w+TP+U1YqDy/0cdhMjLZRIhHkrXmml+6xiK3nDmlnK2xgAqMkEwky51Tlq40Q/KD9wCoSUt7xTdpTtdcV2ffea8nGvkj3T2ocp9tT5OmGm7Np1+pdIF5xLLH5LhMQIchqUHzgFIos9zMqjvDW22dVl3tqvsJ3Oc/cFoPst9uG3lTCjUccS6C+wpXydMJPQd4zlB06BaF4epinVfYXf1kPeeZoL/qO84AwWz1KWK5N/RWSEXUbYLTththJdeWEGMz6RnrwclB84AyXvO2zyb+ZKM/ScWd994zudiouLNL8hT31moc/XKvhplFSYrc5oyptIFpnbgK2kL9fSdwvyH4wfOAhZH3vuoRMdtSPfKp1NoX+et/Ki2J3bfKL35CKllQ9BxjQ8qRh5+LLMBNqco7fPSKwC7XcLs4GBMrIr6cA7Xv2yRfir+6bUKm1F6eLyxOY8y5WPMBNbwogwS9RqYTJ7wmwrL0TlSZgBvJzVaxqUHzgGmvKpTjz8Fox5txfT6UgflxIcQgQsb5ceyYTBsUf1hDDzLlapeorKkCmTVj4G5QeOAfbyUQU98j3Kdu8S3fOlctrThmEhX9VCGSMFilwSF0lxUeZ+OFiY5Uo4MNAPTrFftfh4R17K7j28jijbEM+wCuoV2cxBQI1tqaOjhULdwJgwEyJnR810ltrGWS3MBgYaEYzlrfUoGl5VNLmsVEQlFciKYsYRK+AiHjtDukPlC0qZaNt+2zMpYT4q44GBCDbmOyDtPHKtrBW2p8xnK9HR88nBuPQ25rLz/pmM56gVclB+4BhEd6uZXlFTuKh97xAWpZzFJxPpAVRMO5fmchDlU458+zMeGIggOknn74EYWKwFGUZNWhtP3Ba4HDwfmEozeWBqqLS+7RU5V+Q8MLBGYl7eMV55c1GVlPdmrY0f3j74UqiuSH4xAGLH1wozv0ytwmxgQIgy5ZcOlH9r1BPE/OlX7qiRU+60d/dWyoc1gzp+xWsGjf5AfsYdhNnAgBAlyi+9evnd7mRxX8A9lO8izObXBEmJJTzdp2YDAxIUKb9jLO/3hZV2NqBUQRfoMr5TL99zyDIoP3A4UpRvt9jHDv0jx2NyAgjuYDzMaXn6yuG1cy/vC7PKmlXKCi8LT5h5FesjzAYGJJAGwkqdq0wpiHBrFqkpDn7pRbhtlkLlFKJcohd5UgOAI9xaD11W4Vl6KRtjJAiENXr5gfMgjGOP50Q5xhIGlPcj3DLx1eK+vWmuOBgV+EGtm4tUTCKjfC7lKsItRCPckjBTVpjtLdLAQDWEu9XEz1SnjASF3ES4XUD5/y059bvFE6bRlXjJi5xChFuujv8AvPFBH2E2cD0oHPKdkQmRsf4eWdYST7hJuc3JnnSjebB7uSjvsYWLV0tllJVPcCaeMCNywAau5aiAdsACHM16sT/zKGB3kQbuBdO089GSLkcuREb4LREEJpJuvcR0s2ok1Z5ZDCRlC2S/SrFOFl0KFE1YFmaJhE6YeZlFLZ2JOw3cCau5JHfevN9tg78VMpRf29Jn6dR6UGXt2N4UryqeNcSPK3MJv0kLuF5Zsw74s8l5ez5Z5LV8lZRn4CKYeVmIxFBTs/9xU+Qobzui3JLadQqzzBT8lB3804IieRN87bn4h7IC6rcczMEfKMx6ZTqwgo43pNBj0jg362BmHE8NAyHqgERM5veBOeQl4bRvy/zSsU5puYZJBZiKE0K/ZnEAspRfeHIpOJW+GD/eD8Ol1OekRgAZIFKmtkx4Nk3kKWTk+msGB/NqO9bMz/kccGM3A1B/Da+mAbbaedJN++aqqhzK1OVN9IUiL7//6ugn5icMVvKu+Yy9tGawUpjIpDDxmgH7d3MGL5l1S3g/vpmDOcN8526+QPk48pNKEHjaHtBW+mS5lWVlYYav2RGzMz3PJbxmulFbkPG6Kdt6AvVUWhAYLfZDOK9JCUhJHKdqA5Xp9JnXnsqnvwM9I/Op9GYsdGB5bw6UEf7sVf6BlGcPcf4GAeM3l/bGga0vO4MX8vG+wkwKorHpz01Hx60dv0x2DmUx66mPLxCk1Y4Z1Y63BklqR+MdjDZudPEJe2lkueEs3cFlbY7B9vl0KTLb/Pb+o7xUn0x5QnR0v6Y8RE/vu+uh8EqcHdL0L8bJVjuklOnbwW+y/MXwgqnef6uxLdA1g2a6ZupfzQ8zqtM6gtBsQqK1ToQhU42GbihPxNX7KuFw3TdSmy8sA5jjRGjU8GlkRxxvp7yNaQwo7Dy/axJ2+mbadNQq7Bx2UT6G4kTW/jv0zjB+j21FEpTvKMy65SS7nenyDPGxsVLrdpRX0+tFLb6nDTZVHmroxq4WdLCmDDZ4MlKuoemzqXaeeRMCU+OZdHpziWMrAD0DpjygDHBDedQUbAEXN5avLBwoNPOTsHPC433g3gePseorHqBRsV/PKUHqp6dRvjygl1zaevPeGWZvNisdF2xBOoWUn8F+ebOePo8vHYoV5e5OXa61tHHBl8UZHioAisfsQN0qjeJREgDYPt1Y7RRa54zwAUt5MON2jN6uKQ9uEG8t9tWUJ9HhCTvPEPi+q7tkv6dPM+WdwRvyXrHJUX4jjtV+c8Ls6IKcqteblqVb8JbyJuYuzC+ecZr9344tE6ody4rlIeUVjUfqy2Os8bSzGI3TJ5p/03NuzgLHGj1KA/7lXTrs9mcnFidnvV/a5+WBdXcugWH5EipcbupwXztpo7yiZSK8+i2znLQ/MTrnF8K5yRa9Yh9WsxVQn5/BH8VbWuvRpB3UzidRHtUO1uJ9lgdqx0L8ahtphGlKWxJC7COTH3vfVT8qFCOzNZuySYHmD3mM5RsOmtFMeetTrsIVIj2NXNG0x3bytBDOLn7z174cbb47lfI8jgePW77ybsep1KseTnmgObCE2uH297YeA/ufV/fRimkt1Yw3wk5ZLR5cycD4uOBjwABMi675rjK2KvbK9YJvFWg9ZedfmvxSvgk52i2+gn0sL6ziQrSHY4RZfB3uuXq9obyiTtUayOwFjlHzOWP5mWSQCmTQVu1gM34Hynf1C6UsVf0EIuDcCI/ifcrTFIE/abD7VXSx2If+IwKSO2lhHdnANxDgIlOzmBa/OAX7YMqHKn04C7ke5jfeAlfd2cOThNkabLjybGY4Y6WoJ0FJa4eO++N95QHsGaCSakeg1/egfOvWxX1hJ/x9ytvaGWeocPLvDpRfAaKH/gV2NTz2p9S5Ir0VezLryVfb33Jve/IrqhVmvH5WkagKhAgAV4iFmaIl9Xir46oRK6k1XGGzn8mfHD1waJJ6etkp4qPn5a2hOqF2cI9szXa3oGsP2PlIz6wCvvLu5gJvS3nXI0eKhvaNMJ4Ej5s5SgaHkSD2+wr2ta85J8ywQYY1wx6dDB4c/MuYPqw0c5Q/qQ5hgRdH5tjYzKkgR3vfgad26O/sfUMjY6uDs7Zxbw+3GnjCbl48CWB/tz0+ibtLxvIlFNaHWOUdAmWeVWkvnsTacn61YA+WFsZ+V74hAHjtlQ354/6tKX/helkJm4/3t1Wh2kETamh0AGdadz4zV7eFXjBMV9ZiT04+4ISd6fbRgLcs+4XdMZTPwnYcSdrQRySexPWvOb/0xQozWp23EWbGqUMFkuxyYVbuwc9ZVcP3UBm1w+LmoWdqYISdPoCVsDPWerKevl6zYvecfS/jAsrvwPWMz6IozEhuhcIsSDogEzAHCiHg98PLCGlVz3HKGEiEnbto54jmUZS/UPk9Gp9bswZcpHaQuqX8XVjXcJEEjoBI2O21YXSkvKefku5LE3GJSxvv8JH43Jo9BcFaXQG0+0z/tyYRdnvvcQjlge1SPKne8QZXYCPM2LyYuLT+BoPy16HVlhIJffgI9KO8c6EhF7YF/6he1t7rGE9yjCuIYemzZryWGwycDwjWpjdm8TDmd6S8ogkqnlRf3EYUscur85en6PwKmOl2C52F/jxemH15dJHaUFqdcy/0ozy6zCjeYsabiOpCDPLKXZ1zc9pgVW7ovWMIC7IV5aGX/gLLlvWh1x+rnn3r9aXR1wD4pNfSjfI0tDXT0TzZvPFS35M/vSVvOjvY1dGSEZTqS/lgqU3oRtRFuNOTCs+thJnCZb2da/ZlYeNOdc71Ee+mH+UPrS5KELUAWGdc3tXR+reqxXm29fQW82sW1jI5/16V/bIszthJAmUlzNgsohrWadVCP0sTofkZDbgJBzXWnhp+/66L8Yx5edvlsa86LlKExfq3utX7Si29BhN08245JXPndQasQARLihzlscqHlkbxrDTAMV1hfYFmRCcRdHCNunDUGBURu62LW1xLeWFt3FozsO73arWro/K7yefYwLGcLLx41223tsgPRULuugcWZt2+rrZGK4/oXUTQSYa2XcWE0BWou+S9RS9vmZr62f/wzvv7R8pU7rMgvT1dp5yNwgkzK75OEmZRfl9JerXxo99ZmpZ4eU332VHMWNqGyFoZ3IDylusJ0j+lw46hJMz4qvX5wAs/lqQ/Usanq4xSibnd68caEjSTNBGJpGe1r6Z8yIcIN67ur/fArTaPux3fqWqZNnoJy1IdZd8e725IPuqOnL+e8qvvhd+fg5Dmdxdm2cJcwPkMsRvmLJ4iJ3JvodtUzeWUz564FSsqURBm96pagdSncz57w9rGf509oq5vLlzdq8VcTPlILbxB7L1oUYdt2W8szIokOpkzhdtVcv7CZ10lbUqXdnoJ96X8owkfq5kf7eBeVRN0RqdyvryC9F7PLwe5eCpe2Wk8f795eXS4uRsrapFZWHu/ql0bhWZ7r/KtpKW53aNOQyAb+gzn70f5d8Wm54cyjAszcs2/GUQlOpHy/STQ8YP49erbVcEqVnhJitqF8zehvG9SVfP0+HjF3nv23qTi/cjvBVGZzuvmZRJI0PhPKTJMQVR5CNquKQEumCjmI2Hz8ynvE8PbB+qGHWEtICXMbjhZJGxHZ1FeRlRRlLgjS8yZq0z/BLQrJQj0Ddnj7VGl+1AeImcfiycJMyGXzyq68D4Xq0vWdze3Pae/93RBsArlbo9u/iaKvf8Kb8iKaiSE2SVlKUFK+ZNIJi6O8DK9MsfsdWP0LR0knreiM2tdzaoVu2GPXrum6ABWnwtuYmc0NbPZvEnBu0KbvejNBSZb3MeeAs8LdDtxdfa/hJtQHuKD38ci7kV8y5qJW9E5lJcWJ3ud+1HNuBp59jazBTPgNlEVzKZYM8ep1hw1V+lUJon/CUhwsPtCmyST3U5LbxXHN9JWPUt1wfYy4pfQoZu/CeWLJx+G+Bz8LWsmVtjPorzwwkxxPAIZftLe9XZLV9Pp6/7Y7HlnTar0lbbGA+9zUnQ8zbz/c6DXm40hzfmJctQ0V+GGsUvmWYtr/XzKx2avb0mMWiQ8Dm4IMZN3Fd+sCPbns4D71nfPOU3K5i6XQMnG7/9itrRDNXvydnybDS/dVrsGvMM9U9T7pF0wFTHajuBRzcesjbDQmaFUURHKJxn7dSifd7h9MqKUP70UEsgpv2cROOAGknZ7CDfWVRNuGkFE7S2BWFFfvH3r9Z954g21bRc8OWngkmIJqVSW0ZbNE/fvuF00CxTH/yVU7BMPsYLyu1vR1ZTfVOCeXWE9HiPMelM+9gJJgfYsWdyj+sNuVVkcUVmcEj9bFdzryT2L+6YLd59W859R/fdS64PZ6vVIeYXyzakCvtrx1Sn/QYtlVygsq7kPOlM+FnkGt403eyazsdx2ufPkOn6oKo6gqZigYobfHEaLd7FHGz7Yrlgp5qwCFE6kF3ifptRE+3eGukaYWpEmbyKJAZnxAGCOUD5VUGmtn0/5mwWw6oiNMLukFGXspTwwgwyL1PSacFbLTYBhn4hkp5Gzs57P0+tF81zYDe8qzmqAT/s2mxE3ad92F/vJqOvUXxtT/PSatbO3/mLEg/t8zZRmRs8qshBM1hwxK3ueZILp+L15+VJlhLXuYES9nPKZmNEPx0qYXVWMEvZp0pqnxhyup7t52Kw1eaAJME1rGupGKI8WtRd29Dik30P5WPC+8IJsh7udWwlTrzeqLCka7H23uedWA/xKvfyyLG6fmatL0hdehW5ctX32MprqMt2e4vG5+WPG7/NM+jB1jCHl2XRGg17sGXdIIMEa4GnHixDMr69TGMG2LeiGuF/IYk/IxoR8MFxg2vti17y81pPRNodGMjcxTRNg1kqeUOyxCH0oX64JrPvpKki86NZJEnuNrDn/9Sj/wbg335cKVTFBeaBPYjta6uwEGA6B3fz3xnxnvqG6PZPnS3tximn2UL5rQPntIltput23HpT/8tjh4RrMuSkc04Mb8xKlid9Wx8cEi1OzA8pL1pmqLoPaO0Eq6Tp0IIPyXx5l7iTtaqYbB1bnZ1y/Auh+xg6rC/Eb3VnZ6QbN/OR0p8juLZyYh/k1qfVq1IcLgC+zkm7gBij3l/NLT1/FrjJTXVad1wtWzOw7ToC53t58wqzYUd1MYBk9WWdgp69xmF8m77s8r1egoj++z5f6OQ3KD3SAhPI8ed4GJnVs2tKeJMu2oPGb8vikP4rxfw0OyVqjen66Sz0H5QeKDUmtKdb9DvomfI1kqs2Ux86AdWL837+/Db3//vz327ef+uj3t2/f/v1tTtmj3z9//+4lBbxyf5FAWAP3QJHy007KC0jpWnP5WlMedPKbX7vjJFJH/vfN828/9dFvc6R/ilHeHJkEP3eTH8Sch/Xl7bgb5d0k9s2nsz8KhabkKHYKiu8dJpY/MO+SRG84Lv/ruPzvvz+pv3/TOjxylznJ8Led+SAbnODcRh9CxCkPtjRQM1UqBQRQ4J1R3obxR26lfj48WXY7Z7xtcwMd+knRTufacf7Md5Fw5qcy6fUqXBxoFEZv9fxnRGMXjtvxsogysAummw+eu/tp1pXstCtdlPKOiyaKkDwWN0kI4vC64BaKIrqbutEkq8IU+kDhP9F8jbBcQQIuYH+rD8srpdwDXAszpbq9vH4InoSOZTEreiHm8OSNBSISSBcE6a7D07nVd1ObZVGTlOj6U8z0CDBlKDZa86KQXFzHIJ6IWXvUqdHEKa/ov0WZu4M8Ciq2bc1W4nX0KsXcVtTJ0xGdBvJTjNSR7mA4q5BaNdW15FtUXXIg9uaFmX1wXs0gUrO4E+ZiNavz9QA/Wty6i4G5vPrzqNLg13kzC694bZuxMkh1kL+/SWXXPfT+ftnL9+fPUOuvR+S520VAsHfKxEeM8paR2MvrBiqNjuDLCkOSaNvmbs9wyPaEXo+4QGosT5KEpZH+rKgtYL2W+uRWmFniRoWZokdnhIJauHMnyvPJKOWtMINKadQHdtVX9IFAs6+pN4KrLg1i43XDl+i3h4QXZu0x8pipN88eUNHbm54hrkcR6XHKpNOGLjHKG1Yttv0BSHt515mhrMgOx8u77sUY74QKUEda0xapgAslrxBmrIbg4KMozKjwJMn85TUpYYYkt0JFJVSB4wD5XVUEcR68i1k3nVFX9b7Mm4FqojSwOoiWeJbxXSvcCw7c/+02wxYH3qlqeE8BsVM/gjFS9uN8tJe3Wiyw9U5GKztG54bevdkqR/mFmFVHeZYZdq9LWQEVMOWRGtmaNXXP9g4o8oEGBmciv5hcZvmww/9Ut+5GqqVpAhrx5a6SySE3cD/QrSZ2Tznlcz+/H5cxUvZa1JOcpGvKHvifPSEfKovuGOj/2AjrxvLuH/e4onQKfBxgdGfbnjUXJPSIA1GkdOECMrEJHwzw5bn8yttISvamq6FfP/Dw/idN+CVRrCT03crwBuEu/drUTwme1xNC5ls6BatJxblmfwTQasHbs7xTQp5k7pq/Ldu8wnrn1lWRJCOA5E9vPZ7G1Qcr8zkULXqS1yx5N2JcSfmMgL/ZvHUtIhw/R5gBtFFPuoQ2YUhrvCclXwe45/YtU3NST9XNuF8K570bh6xR9CREgfKHmY0FEUx2pr8QmcKdUO5sx5mCtB9ZX9d0sy2MloDZcCQ8sddE6roTbHUykPX+97efv+0Z/q31ue9AjvJ25qw209KkzN4m0jDrE82iLeXO3wus31kvzqWSifJrVz47HQeZmJv2OsHl8+JGvrry3b3vdYM9AqjhI9d/s/bRXMkdyFDeNr1ahbQxXSan1A3aMwb7tzJdVlbIvRQbb1CB/DB5dW1Fe3KzZ/09dN55TuRZUzNf4XeBe7xhjoVx/0GngH/poOW570aa8pA4LsFrr9GZ9Yqs4tdD7se6PK8TZvn8exklPX05f1nN/azPzhFjFOM0/5L7e3pFQpwx996Kv79N5/6XnfOreu5uc7bCSTr53QI2dOiuNjlA9tfaLKuEmXe4X5hts4D9wix2n3JnX9eY9ExiT4U+LAotha8ukhsyF+bEroeZNHyr9pUkPtTHftk0yArK59IJs8FHgX/Wam5bjukkjTXrYAhY55Ct5z7kaV9bl4LLzh6wn1ntilhQv/OG8RvBTCVoHb+Wwwe74mzaozC/tahYM9SZBNkB1XduoXMq8LfpTPlWYZZPV2VcPkqY5W+9WbchD0OzzuqwaQcg75zqO/zPNw5wcXsQ5b/9Z63gPHLx7FJBeXYmZ5NYOp0+5AUntGzW+OJ7C07R34qXzhisGthWhuRqJ6hZq8UtLczYAAcrcM0OE2blKoQT4JM4vuQKh3sC1wuV//vPhxCeDYw/f/5P/UYYXZ77Tsr7C1mxGefTMdd5cSkoXt7ifeOFteYPL/FKlWsv5QvCDATCzDwBFGaKl9Kx03wozFw4ALtqPmmxO4hWjvaK1mnUE/hw7/+GIv3f0WKoG/7imvqGh9inm6+lPPVXyn64xaEqtj4+pKrt78ibPIiCA7wsR/mu9IUhbsM8W76mYOvpVrXhoCObzi2JxxWyVpjhSgC3WB6Aeb96g/uFmRS48bIZNqu2dnQw5VtEyu2ijpRw2XOvpDx1USHb7Z8lTfngXKqy8VXkQU67Ffu0UHKiiFes+wtZ5cIMQoG1OX+UMKvCm/UUJbalGR3Mr7YiPaabN2gq76ERbtdWOEt55sM6BIRpxGtiJOZaUpWVPIT95rv4d1ZW7CpZ18svWf0lOJd4JYmQGEFOJyn2Fhy29kCP/FY05X5rF+wtmth7LOUDm5mLfRZ2UoHBKrKmlIKU9XwZfSkPoTBTTPmFhuAkzDaKfWEddxOON98FoOmwtjiWh1K+rcPuutrseLSxt8dzF7niwCRrGBt6612HcxE/yPQF4WHu+uAGjrAVCJKoyUYUs30t8FV0OypTKAT14o/IAH8P1opVx6xjmE3Uhcx62Dm3rPVYyrelelQ33/Z+j92giuzVBlVBkPAv26qXOR4eNcvt/E+kU7TuFu7byGtit/omerPdYvr2LDDof5kw866IjCN6g0ufJIrdRzaa+kh+ZfIuRIx6DtKlhVwE8YP3pPOU3m1vCiGCn/yxfzQ8quzdxDgSlEkJlY/Y7dmsVtNOgEtA9ri3MItdlc8xPdDxHiacF0U69QAU7ieZNE5cQXnwlLLIj/jTMxT85APU0XynZJS7wymf+LIleXgGkimXhiHq6k7eF3HQpU2W3vqVqEtNXJiFHXVs5aiwPAlh5g7VaXvDJJvePGdFz4GUz4mTOfNc0Htifj2E8qnz5rGnqtlD1GrKx4fEGy7Q2dT4GX8xG1GkMmpiqO3Wl201KEzsAAAgAElEQVTOxbSC0wH9E+rM9trtt33CLO4KezySbQjJ/iTKG/8nXm1/dyS7a1O/ZDV7UX6JMXlLT0G4DIhG5iOf3PZCmm5xjhjLSnnGBdSG1elLvWzywqxQkHQJ46P8yylP/Xuy7d2R8gpX3j6b8ubHeUom60Z5k12onW9vJ+iktW2/LWUJc3RxlSDfmK0hckUhJ2M4SIicncJMzZG7n8X5pIL5QMqjo8ELt5/m+QY8MvnqKPom+erHyGX2SMUSNF/mbp81iGfM5X0pb27G2nksZ8ndRGOEBkB8xkiYcVo5T53aQEXjiHcQZu+uKSLMznIsKSj2SZP9HSlvHQofgGwvr5J7VHTu5TlXiHfVQn5F22qX9hHNRJ6zkWbr9aM1uRwlzOLxZa6m/PPMd++OynT0j6c8pHelOYbyRjt3bzqv7EcSR0/2aCBeOeqK5C6OaufSXHaKnMqcT+rmk20oP0l3R8qbJ/Ym/dMpn6v/UZQP9GDl3aWO8l6tNp64LfCkUF2RvCz8MVRe2c/cP6hk1f0TGe8XZu1Izg9rtic9X65yxSlZ7LPj4Dsh44oTLBbf/Lj/1ol5eUeGLpR/t53dE80+LVspH9Bc+TJJktYdBXJjd+v3y9Rcs1ZkHG4zuyPekPIXed8ZSx2sTvk6crw7ybriqMT+v0+iPLpNef70azdUFmy50316Wa9mlZIjVzNB8Ten3Gk/59tQPqv7HDrsSE+Wqqipk3+8gvImDqAKxz/uK8ZKiW/fHS8tBf9Lz8u3F5VRonwfxX6p7AsLw+Y96m/vXt546a+IvKy+roTV+spLFfs28t5wJd3Ze3ObMiK7IaJ8oGUBJwxj1bndSrr2VhhPWFVSVoaoC+S0fdRfv1DNNQsV+5q7R9++L4aqitQBjStV70f5czt5NBkoWmUxb8ycMM+LcR9bEnNujevlj6N8uxE5Pwnm+a7zChL+ttA5FzHKblSfLtJOl/1sodMpm/tiZYWZ78p4KeXvGIKmY5Ew1J9ZNoj+kzqELg2+9SoJXCrBJj/gYTTPnPqfi3GiAUNvZSa12Bfe+Jyiiq8oV70cztBe/xyb97h7VJz0ubqUEEa4NYznoHnKxahY6IAD01DiSM71j63vvLyrGUEpJ6p8KBtRy4bvzQuzs3xxmvj1nNh3b9bpJ63Jh0q4DuEAunPWb0PbJz1fOPNVs1iZpdGrT0ANHnQ+yGb1Yk5PyiTEvh1lAtjJA6a+qMBZHBr7LupwK8ox59TOQSHDCLeKolD5wagilI8xo0VSCs+JrgJPmIU1i0W41TG1uGam1utcqovUAS38OlqJbqF8PMmMkUzM4n/TJc/ITDC/kO2NkioOEWBmKsD7nBQdTyQ6TEpgfd709igvLNuZ+0tHyh8b4TZGeWGWOcpbfZ3V+iCwO8XFVu5kwVW2yczTXLMcMZnyLiqgDWNNTLcB9VAqgEf5dvnaA/X8OnzYXN+2U4ILR9uoa+sj4uJsmG56YWt6o+H3bCnqfVJAEaK0wgO7xlX39phQn8BsPEN+nPINr/hgym+a4fuxye64XX+6/p6PuxB6oAZzc6uc2nixFRzNwiywBQLN0WtBtTiRtdjzgYBbfO+k65bVLC3d/AmU71akmV2KrF6Pf2ZaMwE2zknI52XxPnl5hdH6Na/JN5GG8hNp8cY/2XXw+V6+nsCdLCjSEBnvb1JXxpX3Qc9NyNdFasxl9VW8a3JR5KRKRG83DMKTFWai8nRC7es5wTZeS4fE9Vqyakpj2DKkPPBXvMRNoqNCPkGE8qEewEN5nptjdV43JG8o71E+Ubo+laxFhvLrWTZtwyjmB2uO4yqdPUUMi5TpGStyCbPMhFdK3n5BWXGIMDtRqzeo4/ApPi99ikSWOxOpEFslD9XRhg/AfH4LYx7lA2rtRH3v03CY1X/DCKc4MOVNagyN6A0MUpSvrGTN1WnkKG/VVWzp0oao/dH8hH13Jg6KtCMT/2iOLxZeJcE5Gl/kyGWFqEybwp2FusZ0ygR4petWogJv+iG/7fD7fYSqlp5mU5aWmu9m4m02rEZN3n1StH/tdoVzeLyd32Rn/JQOeTzRAIL6f5WZl88VO1GZTs89T/kl0gDTN/bVH05pZEVnPbUHJwLBIc3OhOk4Xpj1y1KKmmqc5PJSQ4fsStTgW36fbNgcham3Sl0m4q4pl7J/ExdkUu+4Nosi5aN3z1mYIWT4AQ3kqDZXEmYQvDw4oCwXsB0h5/FpEknexCs0ArVHLdua4VhVSK6RSfvYUwby595tcNxEeVME24WvjWqr61pvkLl1/yxt1hBkD0HtHl2zAqRt762yTvOc29WiF8SrYCsY37jzAade2aT02H3SQTmywfXzUe7Ez73fCoJmyieRsGofMOg9CFFBxj+kv/a483WUF3Je2zoxwlw6cksXGN84WZEqhM8ue2tq6mnfS5O9855rhtooX7OssnszvooXfbwCsnfonWENJMzR9MLVnQdvrYE8ljiCJCMdPQQiidV1lWAj5VcaTm7uLKUXN+PQ97sqvm9M21TssygvIBhZq8+LKQn/9ad0hQL1MrvrPZb2wufeDa29fOA4G/iOHt3LH6v9QmCVA0gP5TO/7Lv3ZSh0OPzzfBrj//z45z/+N18k7fayZwvdO0D43HuhjfIKeNUL8AIx+9vR6u+xvFC+MFPGGmtv/OyaSQqQ6U6c5yCFpjmoW3UN/M+P7//88/2/MvfhGfZnM1763HuhbZIOua54aXuW8skv5dt4PW564NAVVorRir4s5bvfvHeGDUVIKMhBw8MFZP3bon9/w/c3fqXvwwHizEjjyYxf0g8zt1V7KxoVe1ougscrr/qQ5I0lpnW1mAV4CvbhZiMWZrgIJhMOo12YgSfMPEfA+uIegIhdGlaCwPZJ3TnvHsYfZPz3X/EiLf/73/9tn9v8eMYvSO71c++4OsVDn0m6NMsTsgsoUAStj1+cXQAVal5cjuc9Bfv48a6bn4PQfJf3P7BnPR4DrK6zowYFwN9OEmZymGVGyr2LE+bgI/hlOP/9jy1TWKT/0AoAYX5Nl/gsdsbmubdurFxA/3n5wK61LbNhgbK6sxcpI4iSoXQUEo4n4SnYl77ZkL3RK0iYuWJ7Rk4vGhBfgOJuk/nlQF7pJlimexeBsLZRIeP/+eEs9mGR3r9/Z85j9Irnmuw9mBDZM1L/qHscQXnXySWKnYgnYcNhUdwojieBCjYp+UeUVwyRMPNrtthAX6SyUIWVC/V1S8rXoIP+ucnhz4833X94PfkGv5wKwMXYV4ab4HjJdQjlrc6a/HVBXZ5tc7wCB2gQb04qthcA68vX84JKmqwaOKGF9g7lhBmrMNZeoHxrwdU124Wdknib/N2Jvzv4H9/TlF82AuEjOH+CsnIQ5XOwZpeUDkDsjtT+DiO20lq31fxVMBigkAt+UG54eifv0NBcE0n+fMcu/FfGE+etCOQkwkNxgty6gPI7cHNeiIVZ0X//kZCHF6Lrk4bBXzmV3rvoR8XdnoFB+RCfwIs47qC+dIE3UMtcVKiu7sBLnrYf2s2fYITsSHk3L8VT6TTBFrd0NdzgXrzoWZp71Ww3bH/vkd/GIzHzbdnkeiQvuEtEF7hZE6nGGfMO/SgP/m4Nxi5tXfP6VOOy1+nZ1+xUOk2+9bpDp3xuB3CBouYi0y2E3fef7/4kHuLhU3VnmCA7Ul7ZuXblKL+AdN1z+QZdcmm5sQ+cVicTfKcX9Oxm2h1vjX1D5Shi+v+zOf9AypOvyeJTvpOysvZkM+e2zjHOE7gbWJC5qXRyp4m2r/p7P10b7Y0/Mr1ea/YRbeDJnD/Fn6gf5VWg1nvo04nBsn2btBWU9WNVTM++pFfKLiLyKQ/QqXnBlvV24Ou+sHWkxx3vjfdQXmaWE1/4FJziWtCN8hnP+tSUVVX2C8pAX6KEuzoyGdGLtaO4hBQ6dc+et6g1dXHItI0w+woqgZjJfwblG9CP8r0ySuduLIHOZdWER1N+70uU72g/MLdNexFWnk9ejDVz2hHtzGmFGQ2UUJjVZH461CRa7QkxRytGVF+PQTwCeAjOWSfwjHl5dmFZOCzHwvR2Cjfb1HAvy8eM6NgAQW75qLwHS4o824i58OoSZxHdS30Ds9N78hWJZuU1Yib7J+Mcl+FrKe9eelZfBXcN8NAXHdjD/R6NL35HlfsEYDmV23UXgL+wEz7976KO3RmiQPFAwSwTl1ZRPnODx+ErUB7hjY7jv/Nlm3T3fbO+A0q6kNYD16YgkcaLap2UQ3F2e/O+KGo0ueWmvHPFXnXpsfzNBWMcJzXnG1A+uyL19m08i4Iwg7Qwe2qtaYs3Wg1LThpms3U68T7m4E6pIE81Y/nUhU/k/Ellvpryq7b9QetNwhhaUWF2XmHOAg7ldUwnExFTh72f8X8g3r9/s5RPjPv7TNI97+meJOavp3z2+1M7u6VckwdXLQ3DZk1lb1NnPAtMf2WV/xTlxXNvYnXgEThLMbmc8rkTj1VvNQoUf3LV0jD9ud6z2Xwq6vY15ZXZhtkEzmTKp6z7UkO8bMHdY/BFKJ9zWH004SM12zoHfx5Mn05bx5g91s0frei/azzzD4VevmZZTa+CX4/TbNEXT9LFKM9W7GezIi/MzizJiTD99kzzdNzjY2g7cFS3lE+Z7NsXz4a474ROBKcZHO8yL++f1Nrf01mRMNcZq/XDq5aBMdSbnS3A6O8AuP86uuRpWWDcpAoWe2mIjO/Fq67gPGyjgPsbuySb9mllvQvlfev2fPS+picgPt14WGzym8C42wIp8GZLWNPl01bxMOEPUJiXF3bz2QC4XKDTnzYZMIP7uq9Ge49uR3XerOJNKA+BIKyKoHZL+L4G7u1rElxSnJMBwccWPEefvODP9/JoXtDJ58rQHehPhaOat1qzKYXxo0pX/ItQ3u/aVezsYwEfK8y6wPRzuR74V5HPfySd/IlQNHZBfWbe+B3TbCVdu0l+ouvQfSj/UcathDC7oii3hCo5S//6pzBR96Mxvi0OtXEW0azu0QG6yKAI6EAwKx560D4EdACrz8WE9wJN8/dgVI9p1AvJ/B7CADsdmjvovTInm21kdvKrUD4Yy8P25HOREGaXlOWRMNvVZDhfFAkpvDtbpCFPEmpvAaOIa6sxdsUzB+c2DgU8zfj+zaxqnhV9V9idg5roLFAnbyhvEtJ9aHjPVId53c2fuVrkJpT3R7yfQIz4WP4TanYW8pz/8Y/c8S6kk5lHQNKh9o2dNFHa0HniBKafZj/CBbzPiVYKGFlhKI9+R6TPm95eTXghzlRY7i9xygsr0wE3oXzx5NMQHaZ8RM3Ogt5uOjGe/1PD+BWflLGsgdG18WjGP292oqmFu2r3E1PU66UBxwKG0kYAmJ6cpppI159xTG+zSVP+1CWhN/a+ezQS8/IDciCxI6T/lRYGcQScn60LMFKeSKtpSnxlPnp8Vu7E4vwLnc6OiRQZ6k0nj1JlChyP05SvqM1eDMofg6hf4fnFeDQ057e9ue79a8fx3v4Z2LmjIk9DefzK82rODRgH46yeL46ydp6dOnAayvPcHNrrlbHg+UN5m8+a8ueu9L31sponY1uPT5iJOBlml/nvPxzr//z4HhMDYihWuGegNf12yZ+x4Fk3Gm2oI60c7XM8hPc/Td8Narbjf4WORxMda8qbyQH8Y32QYDVXe27LuJrya2p8Di0+VpidCaS4ZrkGHu6Jd2cG7ICDbSTu+0gRXSe0umNPPc3mDJABjtwG+fM1U5oZcLLuRf37rNj3Qg/sjacxDuxRDETn5U8O53E55UMmfBItPlaYnYo/v5jpxP3cBtQShO8h7xxVmmzZRvpLrhvAXGbWIPyTJ3sFX095f6D1WbQIjPWfVbVT8efXD9PFf//xYwff429AFJ4zmeXGDMdqQIrFpkNf+difHbPrBpRflmyAuAfDVukD6/Y8RD3bReE5U1h70b1zm6fXG+lM7aYk/pn2ErTgFpT/XHyoLHsmItxSeyjPQT3Xp+tyPD0w56D8wJfBHWXv+aF4B+UHBq7DBVsxDMoPDFyHC+LtD8oPDFyGK3bYGJQf+Eq413D+kh3W7kZ58Ce2bvV6Bj4Ct9rH8JJttOKUxyVFQH+6Uw8CGN8F98XbYfWjokZ5suxmfc3VCBv+ipImPuTszaUBB7BQOtBMPW1utFvdNUWJUt5x0W5zLMwOJQRxWKXCudotlM0mhbjXuLe/ssJ/kvik1dRBMUal7C7xWV4p5R7gWpiZTWXv0+xugCBQXOgcgxFhzcoXu4jdD0xj1qc9lfMXKRxxyiv6b9Hko+2FJOC2rdlKvI5epZjbFAONj+g0kI9S5N3QHQxnFVKrprqWfIuqSw68c31WmNkH59UMIjWLtjpWqlAaDT1Aw/QHE4eY0JhxLwx8FxTK6i4crsRFQ4wY5S0jsZfXDVRWOghkhSFJtG1zt2fem+0J/a2ZITWWJ0nC0kh/VtQWsF5LfXIrzCxxo8JM0aMzQkEt3LkT5flklPJWmEGlNPpg2F0trSqAS9LtAnZcpvLMbQ+u0jZilDesWmz7021PRnnXmaGsyA7HizWO715lhQpQR1ojK6mACyWvEGashuDgoyjMqPAkyZwwW5LCDEluhYpKqAKfB4r0Dbjq1K5kp7hzixeVcll/AY5j88QnddnrjfbyVosFtt7JaGXH6NzQu9dLOcovxKw6yrPMgIWUDFkBFTDlMcpptmZN3bO9gyEB2VAa8nkelI1MZaNL6jXsMwWRpVh0AeW5r6f1K/WO8tdrUNe93eQkXVOBgP/ZE/KhsuiOgf6Pj61uLO/+cY8rSqfAxwFGd7btWXNBQo/4QGAcOooPR2GlFQacnbKUf4tGjEyx3SiifNOrOX9dAa6OfbfibP2U4HlPDjLf0ilYTSpdH4wAvpQFj4JFecGhZwoM72vxK8q7ULNL26L3izl/4cu9kvLpWj+9tUc4fmdhdimAiW46awxTRfHoQsoDX+2FpORtoRqe1aWcv1KDK1D+MLNxOd/8BbcWCpnC3brcl0DNNgydG8rz7vSmS8cRvb85ve3WMYrcrjgXV8AxHmap7dHsrBWe8qQWoOkz4rH0FoiT2WCDf8pR3s6cycoUJswl2/uCoHQDYRZtKXf+XmD9zno9D7Y75w4e7AFa7OkHhRPw9CMNl3B/uM3mLzeHz3iQeRW4/S+8c25/W6XCLbC8XS/fVxnyW3thhvJ+8O8atKbL5JS6QXvGYP9WpsvKCrmXYuMNPhCmZ9KRYbFHnwA7+Jm2gluwJ5zRJ8ecU3jBa1Y8Sfes5xX08cIkyG4XY9/7SYu+2QqFCc9ieO3Jd2EFulea8pA4LpYOYodNWcWvh9yPdXleJ8zy+X+VcfyyFCbVuQsMngc9Jvu02r3vLnnM/lbEEQpHk0zIZHhtRASwCgS+yWMx1NeCAuzOOvykhZN08mcTsKFDd7XJAbK/1mZZJcy8w/3CbJsF7Bdmz0MhCrTAyLZjhvuKyXG/j59evJmFUqTBADsmeXta2x1tdbh8hb05Wzl1bE1vKxx2UkLKv/+q6fWym+2YjxTloZnyuXTCbEhfw3Ks1Ny2HNNJGmvWwRCwziFbz88EzPk48hJS7qLt+ZZzv7h2e0ve6tKMu3EQzoNx0CP0F6vrr5k3uwWkNW1vudjpyxdSfiLK4xwmyQHUAJKUL3xP1ghyX51TX7BKxTnr4TkV+Nt0pnyrMMunk2UDxwqz50Fd7RJzNucDAcWU5z3stHKOHDXEsPtb0l44tKPtRJvm0h9FXTpTnjbb8SjP4wIaRuymPDuTs0ksnc5Uhhac0LJZ44vvLTjFlS68dMZgJcW3MiRVsGSBGzMopHPCjA1wsALX7DBhNnB7rBqz515keOv7FppPssm9SP1/TQttWz9Tpw28m3XopOQU+wXv4N1uJ+X9hazYjPPpmOu8uBQUL2/xvvHCWvOHJ2JS5dpL+YIwA4Ewo+ki4JrhEgAVEWYuHIBdNZ+02A3Kfx5WgxCytZF1fWaKgh17k+Vttjy229Yrq85bfgceS0R5u5uul28t5am/UvbDLQ5VsfXxIVVtf0fe5EEUHOBlOcp3pS8McRvm2fI1BVtPt6oNBx3ZdG5JPK6QtcIMVwK4xfIAzPuVUrlfmA3cHGuzAzGR9HJwU3FMW+DraCxOW1srxX27NzOH/N5O0plvpO23jOWpiwrZbv8sacqHNU/cNL6KPMhpt2KfFkpOFPGKdX8hq1yYQSiwNuePEmYDN8ea8bzJLZrhlNfrK/P6ZxrS8yoi+qsXFr8H+foAcPCvyEpH2dh5OzMGgIUdF0oW+/AbWMozH9YhIEwjXhMjYZ1JNWZJI99vvot/Z2XFrpJ1vfyS1V+CcwlhlgiJEeQ0FPvLcI4Nb3MXt908ORVRF203s5xYszfOSHj1ezyvyIynmW2WD1NGxklpIWsgzLittg4QGIYVEE3SodsTn/c6qcBgFVlTOmPCnq23L+UhFGaKKb/QEJyE2UaxhwNMzcN8dxnOmDfYOgw5r8HN7WF1HqK733k5RfJZeywVve9Cysu8hDb0VkYLSRvISG+B8DB3fXADR9gKBEnUNIWPHfgu9oDLFArB+TXHrJV7sFasOmY9UECCUNQL9HgXERdBJV4awP190s9Q4IAo8LE3/CXURBryx7a6L5ynKOez3M7/RDpF607B4B2oeOHy6XQR7CLvRBmd/BMLM++KyDhi4Fxof7hZ0WQLa947clsnf4+zxVnyJtaZjrfMeclKOk/p3co5CBH85I/9IbY6UFbVGEeCMimh8hG7PZvVat4kcAnIHjdPMTFdIGt6oOM9TKiQRAMHQLfalZYc31lamN02af3QsFcvIFlJt/6yJXl4BpIpl4Yhamx8gkjGyS9m6dJthNlKlq1r4qWMtAFheRLCzB2qV0vQh4FOUHE6Nhtw7hV1W1M+PiTecIHOpkY2+ItZBZDKqImhtltftjkX0wpOB/RPqDPba7ff9gmzMK+r3VC/NDIKt3Bxe4dEB4J6+W1j39JTEC5DK7sRHWZtdquGGbhHjGWlPOMCasPq9KVeNnlhVihIuoTxUf6g/PkAXruWe/j1Hf3tAhV7iv1KO99cKjFcatt+W8oS5ldseCvIN2ZriFxRyMkYDhIiZ6cwM1uvxHMeOBOgBAStZfDlC4c2WI3lrXYeHcsI8hONERqwsafIi7SEQ5dYty/Ixjo8rzOWlSANmGLCbFjsLwBtkFBAjZ5+N6VeY2u+e7fiaFct5Fe0rXZpv9FM5DkbaTYndsmTZSA7VwmIG4sG5S+AMA6dmMb36+KXxG41kzdHlFf2I4mjJ3vU3J8SyN8umUNUO5fmslPkVOY8uvnzIeWy8LrbjeIRyc2m+djXdeoo78f46rERgz+J1Wg3C5wE8sp+5v5BJavun8h4vzAb6AB57y268pZd/JKcl3dk6EL5RTXtLhBm7GXQSvmA5sqXSZK07iiQG7vfrF+m5poN7EXN4prytTft4pezKA/Gl93zp1+7odKp7Ok+vaxXs0rJkauZoPibU+60n/Og/EWo4mjp4jua7RglyvdR7JfKvrAwbN6j/vbu5Y2X/orIy7Lhtp/J+sqh2N8BdSPPbDd/xDrLfkhRvrkVxhPWPU4iAXWBnLaP+usXqrlmoWJfc/fYjYLBRlWRBrqhds185vp8nO7LIY2KY86JiBFN6X61vuu8goS/LXTORYyyG9Wni7TTZT9b6HTK5r5YWWHmuzIOyl+PageLlNqaWyx+D1RRXpRjLiWEEW4N4zlonnIxKhY64MA0lDiSc/3T7Tsv72pGUMqJKh/KRtSy4XvzwmxM0p2K+sA40RT3J7x4txpzRkj5SEp7QJHzwgi3iqJQ+cGoIpSPMaPh+XYVZuAJs7BmsQi3JsatjYrpGk0fYTbQjgb7enRB7P0JX0d5YZY5ylt9ndX6ILA7xcVW7mTBVbblAQvW2aRSZk6tI9x6YayJ6X4sYNPT+1sVSUo5cBxaot9RGmubv7fRzkG2DaWGmoUTD9v1p+vvyaCQONANPFCDublVTm282AqOZmEW2AKB5ui1oFqcyFrs+UDALb530lhWczHaKc87yeyJoHEupCEy3t+ml5TyQcpd4UQKRWrMZfVVRQL3CG4fE26JEoHdbDAhwMbi2UvR5DdjmrmadDSTZ2j0hAzl17NsepFnMT9YcxxX6ewpYlikTM9YkUuY5SR1DdwIs25velWkTrkOyNAW1VqPzXRIur2B8U5GjvLBnJq8IWp/ND9hISBvJYIi7cjEP5rji4VXSbTQmwORI5cVojJtCjdwElopbxgfDeRwY+Qpv0QaYLp+PJnGW+g6B9O+z6QHJwLBIc3OhOk4Xpj1y3JAhuQzh/kVjWlKPxrGPy1OYZHyMcSM3kHv5//QcoPC7ftnWcgXf4HAcxoOKMuz2s7HIDmU18aXOTksff9kON9v3HoKmiivsVof4/2wuq71Bplb98/SZg1B9hDU7tE1G0gjTXlwSms8md4f7iXeguIWaKZ8Egmr9gGD3oMQFWT8Q/prjzsPyl+CrME+s2+LYu2ve4mORBvlM5UszsrvxlUPuI9XQPYOvTMcECFL+Yw3ysO4TmikfPgYsi5yKb24GYc+51XxfWOadBJ+x817ZzggQsZgr+13ydfypSgfOs4GvqNH9/LHPmcIrHIA6aF85pd99x44G7nNKnKcf+YLa6O8Al71ArxAzP52tPp77GNWvjBTxj5jb/zsmg0kkXe+U2mT/SPfWNsknaLd2Glpe5byyS/l23g9bg+nO8ktWYrRir4s5bvfvHeGAzLkKZ+2330hyi+8XASPV171Ickbnwqtq8UswFOwj33KnjDDRTCZcBjtwgw8YeY5AtYXd6ALSpRPzto/8pX1maRLszz6UJBYblygieWvonWLy/G8p2AfL1jd/ByE5ru8/4E96/EYYHWdHTUoAP52kjAbyCA3L5822X9pyofILn0xLFBWd/YiZQuFEUsAAARpSURBVARRMpSWrRxPwlOwL33IIXujV5Awc8X2jJxeNCC+AMXdJvOBc5HqSNQrui0Zp3qW1x3jCMq7Ti6tEcXiSdhwWBQ3iuNJoIJNSv4R5RVDJMz8mi020BepLFRh5UJ9DcpfjzR5sxr/oLyH/PoQChCBcSMWtgXwPxspg+0FwPry9bygkqaXYTihhfYO5YQZqzDWXqB8a8HVNfvSaFPRn6nXH0X5HKy5KjeAWpZY6Ps7mEhLa90gbAvBYIBDJ3lBuWF08jdAU4iMQfkTcPNnLBZmRf/9gXOxI/bd4/Aoyn8uL+6gvnxltPTYT31nHSnv5qV4Kp0m2OKWroYb3OsZ9yzNvWr2BdEpjv0T0I/y4O/WYOzS1jWvT4O+jPGefc1OpdPkW687dMpnoBX13fzNOiA5OlJe2bl25SgfbvC67wZdcmm5sQ+cVicTfCdB/9TG80nouCfdzdGZ8uRrsviU72TZXHuymXNb5xjnCdwNLMjcVDq500SF2dcZFH4UKlvpU831S0/Kq0Ct99CnEzOuj6ucaCso68eqmJ59Sa+UXUTkUx6gk/4CW9azUd93WyDrSI87DmxR120/+D10o3zGsz41ZVWV/YKS1Zco4a6OTEb0Yu0ohCGFTu8dXJ9hZ/kUgFtS5AuzJ7e1m6OG889V63tSvldG6dyNJdC5rGoCePtVOsp3tB+Y26a9CCvPJy/GmjntiHbmtMKMBkoozGoyH6iAXJo+WK1/yrw8u7AsHJZjYXo7hZttariX5WPeCRsgyC0flfdgSZFnGzEXXl3iz4W00Tya8RdT3j25rIQFdw3w0Bcd2MP9Ho0vfkeV+wRgOZXbdReAv7ATPv3voo4NHAVZs3n4K7hDL++NjuO/82WbdPeVts73NmdKtB64NgWJNF5U66QcirNH240eAEmDunGrE+EGlM+uSH12Gy8IM0gLsyfX+skob6j+dMZfTvlV2/6g9SZhDK2oMDuvMANSFBgNZZlwd1xP+ez3B3d2pZo8uGofDchtHf2sbaXjuJzyuROPVm8LFH9y1T4cSdJ/AuEvp3zOYfXRhI/UbOscPHBTgNpGtY2deyQunqSLUZ6t2M9+wHlhdmZJBhrwJvjMjtt6ZnTOhL18GO4yL++fhLmzk/wFSJjrsAWdXZiBJmjPiHnW1P+opQ13obxv3Z5fz1eh4tONav6oxjPwRNyE8r5TmSbGJaXpCIhaJNSU3N5sYOAkXEp5v2tXsbOPBXysMBt4Ou5D+Y8ybiWE2RVFGRgIcBPF3td/P4EYCWF2SVkGBnzchPL+iPcTiBEfy39CzQaejptQvnjyaYgOUz6iZgMPx4297x6NsYxm4KYYlD8GUb/C84sxMLDGrZfVPBkRH/tPqdrAo3E15dfU+BxafKwwG3g2Lqd8yIRPosXHCrOBR+N6yjuF9/FraVYIjPWfVbWB5+IGlHch4q4uR2/YKn1g3QaeiltQ/nPxobJs4MEYlB8Y+FIYlB8Y+FIYlB8Y+FIYlB8Y+FL4fyNC0ODPvFsTAAAAAElFTkSuQmCC;" vertex="1" parent="1">
          <mxGeometry x="-770.24" y="125.5" width="870.47" height="262" as="geometry" />
        </mxCell>
        <mxCell id="3L2rBDvknza2Va5TI4hM-3" value="" style="endArrow=open;endFill=1;endSize=12;html=1;strokeWidth=3;" edge="1" parent="1">
          <mxGeometry width="160" relative="1" as="geometry">
            <mxPoint x="117" y="285" as="sourcePoint" />
            <mxPoint x="291" y="285" as="targetPoint" />
          </mxGeometry>
        </mxCell>
        <mxCell id="3L2rBDvknza2Va5TI4hM-4" value="2" style="ellipse;fillColor=#ffffff;strokeColor=#000000;fontSize=18;" vertex="1" parent="1">
          <mxGeometry x="141" y="255" width="20" height="25" as="geometry" />
        </mxCell>
        <mxCell id="3L2rBDvknza2Va5TI4hM-5" value="&lt;b&gt;&lt;font style=&quot;font-size: 15px&quot;&gt;Self-Adaptive System&lt;br&gt;&lt;/font&gt;&lt;/b&gt;" style="shape=cube;whiteSpace=wrap;html=1;boundedLbl=1;backgroundOutline=1;darkOpacity=0.05;darkOpacity2=0.1;" vertex="1" parent="1">
          <mxGeometry x="291" y="220" width="130" height="110" as="geometry" />
        </mxCell>
        <mxCell id="3L2rBDvknza2Va5TI4hM-6" value="&lt;b&gt;&lt;font style=&quot;font-size: 15px&quot;&gt;Traces&lt;/font&gt;&lt;/b&gt;" style="shape=cylinder3;whiteSpace=wrap;html=1;boundedLbl=1;backgroundOutline=1;size=15;" vertex="1" parent="1">
          <mxGeometry x="571" y="245" width="60" height="80" as="geometry" />
        </mxCell>
        <mxCell id="3L2rBDvknza2Va5TI4hM-7" value="" style="endArrow=open;endFill=1;endSize=12;html=1;strokeWidth=3;exitX=0;exitY=0;exitDx=130;exitDy=65;exitPerimeter=0;entryX=0;entryY=0.5;entryDx=0;entryDy=0;entryPerimeter=0;" edge="1" parent="1" source="3L2rBDvknza2Va5TI4hM-5" target="3L2rBDvknza2Va5TI4hM-6">
          <mxGeometry width="160" relative="1" as="geometry">
            <mxPoint x="431" y="285.75" as="sourcePoint" />
            <mxPoint x="551" y="285.75" as="targetPoint" />
          </mxGeometry>
        </mxCell>
        <mxCell id="3L2rBDvknza2Va5TI4hM-8" value="&lt;font style=&quot;font-size: 14px&quot;&gt;p1 acceptQuit()&lt;/font&gt;" style="text;html=1;align=center;verticalAlign=middle;resizable=0;points=[];autosize=1;" vertex="1" parent="1">
          <mxGeometry x="457.05" y="255.75" width="110" height="20" as="geometry" />
        </mxCell>
        <mxCell id="3L2rBDvknza2Va5TI4hM-9" value="3" style="ellipse;fillColor=#ffffff;strokeColor=#000000;fontSize=18;" vertex="1" parent="1">
          <mxGeometry x="431" y="253.25" width="20" height="25" as="geometry" />
        </mxCell>
        <mxCell id="3L2rBDvknza2Va5TI4hM-10" value="" style="endArrow=open;endFill=1;endSize=12;html=1;strokeWidth=3;exitX=0;exitY=1;exitDx=0;exitDy=-15;exitPerimeter=0;entryX=0.89;entryY=0.888;entryDx=0;entryDy=0;entryPerimeter=0;" edge="1" parent="1" source="3L2rBDvknza2Va5TI4hM-6">
          <mxGeometry width="160" relative="1" as="geometry">
            <mxPoint x="463.04999999999995" y="375" as="sourcePoint" />
            <mxPoint x="120" y="316.03999999999996" as="targetPoint" />
            <Array as="points">
              <mxPoint x="461" y="355" />
              <mxPoint x="221" y="355" />
            </Array>
          </mxGeometry>
        </mxCell>
        <mxCell id="3L2rBDvknza2Va5TI4hM-11" value="&lt;font style=&quot;font-size: 14px&quot;&gt;Retrieve&lt;/font&gt;" style="text;html=1;align=center;verticalAlign=middle;resizable=0;points=[];autosize=1;" vertex="1" parent="1">
          <mxGeometry x="316" y="365" width="70" height="20" as="geometry" />
        </mxCell>
        <mxCell id="3L2rBDvknza2Va5TI4hM-12" value="4" style="ellipse;fillColor=#ffffff;strokeColor=#000000;fontSize=18;" vertex="1" parent="1">
          <mxGeometry x="291" y="362.5" width="20" height="25" as="geometry" />
        </mxCell>
        <mxCell id="3L2rBDvknza2Va5TI4hM-13" value="&lt;font style=&quot;font-size: 14px&quot;&gt;pick() and send() : &lt;/font&gt;&lt;font style=&quot;font-size: 14px&quot;&gt;δ&lt;/font&gt;" style="text;html=1;align=center;verticalAlign=middle;resizable=0;points=[];autosize=1;" vertex="1" parent="1">
          <mxGeometry x="155" y="255.75" width="140" height="20" as="geometry" />
        </mxCell>
        <mxCell id="3L2rBDvknza2Va5TI4hM-14" value="&lt;b&gt;&lt;font style=&quot;font-size: 17px&quot;&gt;Test Generator&lt;/font&gt;&lt;/b&gt;" style="text;html=1;align=center;verticalAlign=middle;resizable=0;points=[];autosize=1;" vertex="1" parent="1">
          <mxGeometry x="-385.00000000000006" y="90" width="140" height="20" as="geometry" />
        </mxCell>
        <mxCell id="3L2rBDvknza2Va5TI4hM-15" value="" style="endArrow=open;endFill=1;endSize=12;html=1;strokeWidth=3;" edge="1" parent="1">
          <mxGeometry width="160" relative="1" as="geometry">
            <mxPoint x="110" y="300" as="sourcePoint" />
            <mxPoint y="300" as="targetPoint" />
          </mxGeometry>
        </mxCell>
        <mxCell id="3L2rBDvknza2Va5TI4hM-16" value="&lt;font style=&quot;font-size: 14px&quot;&gt;update(v5)&lt;/font&gt;" style="text;html=1;align=center;verticalAlign=middle;resizable=0;points=[];autosize=1;" vertex="1" parent="1">
          <mxGeometry x="40" y="275" width="80" height="20" as="geometry" />
        </mxCell>
        <mxCell id="3L2rBDvknza2Va5TI4hM-17" value="5" style="ellipse;fillColor=#ffffff;strokeColor=#000000;fontSize=18;" vertex="1" parent="1">
          <mxGeometry x="19.999999999999943" y="272.5" width="20" height="25" as="geometry" />
        </mxCell>
        <mxCell id="3L2rBDvknza2Va5TI4hM-18" value="" style="endArrow=open;endFill=1;endSize=12;html=1;strokeWidth=3;" edge="1" parent="1">
          <mxGeometry width="160" relative="1" as="geometry">
            <mxPoint x="40" y="253.25" as="sourcePoint" />
            <mxPoint x="125.44" y="253.25" as="targetPoint" />
          </mxGeometry>
        </mxCell>
        <mxCell id="3L2rBDvknza2Va5TI4hM-19" value="&lt;font style=&quot;font-size: 14px&quot;&gt;selectComponent(): v5&lt;/font&gt;" style="text;html=1;align=center;verticalAlign=middle;resizable=0;points=[];autosize=1;" vertex="1" parent="1">
          <mxGeometry x="50.00000000000007" y="230" width="160" height="20" as="geometry" />
        </mxCell>
        <mxCell id="3L2rBDvknza2Va5TI4hM-20" value="1" style="ellipse;fillColor=#ffffff;strokeColor=#000000;fontSize=18;" vertex="1" parent="1">
          <mxGeometry x="40.00000000000013" y="227.5" width="20" height="25" as="geometry" />
        </mxCell>
      </root>
    </mxGraphModel>
  </diagram>
</mxfile>
